<?xml version="1.0" encoding="UTF-8" standalone="no"?>
<!-- Created with Inkscape (http://www.inkscape.org/) -->

<svg
   xmlns:dc="http://purl.org/dc/elements/1.1/"
   xmlns:cc="http://creativecommons.org/ns#"
   xmlns:rdf="http://www.w3.org/1999/02/22-rdf-syntax-ns#"
   xmlns:svg="http://www.w3.org/2000/svg"
   xmlns="http://www.w3.org/2000/svg"
   xmlns:sodipodi="http://sodipodi.sourceforge.net/DTD/sodipodi-0.dtd"
   xmlns:inkscape="http://www.inkscape.org/namespaces/inkscape"
   width="256"
   height="256"
   id="svg2"
   version="1.1"
   inkscape:version="0.48.3.1 r9886"
   sodipodi:docname="New document 1">
  <defs
     id="defs4" />
  <sodipodi:namedview
     id="base"
     pagecolor="#ffffff"
     bordercolor="#666666"
     borderopacity="1.0"
     inkscape:pageopacity="0.0"
     inkscape:pageshadow="2"
     inkscape:zoom="0.7"
     inkscape:cx="438.80419"
     inkscape:cy="-237.58691"
     inkscape:document-units="px"
     inkscape:current-layer="layer1"
     showgrid="false"
     inkscape:window-width="1916"
     inkscape:window-height="1041"
     inkscape:window-x="1920"
     inkscape:window-y="18"
     inkscape:window-maximized="0" />
  <metadata
     id="metadata7">
    <rdf:RDF>
      <cc:Work
         rdf:about="">
        <dc:format>image/svg+xml</dc:format>
        <dc:type
           rdf:resource="http://purl.org/dc/dcmitype/StillImage" />
        <dc:title></dc:title>
      </cc:Work>
    </rdf:RDF>
  </metadata>
  <g
     inkscape:label="Layer 1"
     inkscape:groupmode="layer"
     id="layer1"
     transform="translate(0,-796.36218)">
    <path
       style="fill:#678de5;fill-opacity:1;stroke:#678de5;stroke-width:5.98552942;stroke-linecap:butt;stroke-linejoin:round;stroke-miterlimit:4;stroke-opacity:1;stroke-dasharray:none"
       d="m 73.067563,804.99984 c 63.065987,7.90007 71.238567,34.03002 71.238567,34.03002 l -33.22516,-0.33742 c 0,0 4.37053,-7.13776 -16.622764,-20.73961 C 73.464885,804.35096 73.067563,804.99984 73.067563,804.99984 z"
       id="path2987"
       inkscape:connector-curvature="0"
       sodipodi:nodetypes="cccsc" />
    <path
       style="fill:#678de5;fill-opacity:1;stroke:#678de5;stroke-width:7.39304018;stroke-linecap:butt;stroke-linejoin:round;stroke-miterlimit:4;stroke-opacity:1;stroke-dasharray:none"
       d="m 18.071889,830.36438 c 18.571967,-13.81973 44.108425,-3.2904 44.108425,-3.2904 0,0 -42.560761,18.42629 -42.560759,83.57638 0,38.84913 -18.5719709,-61.20162 -1.547666,-80.28598 z"
       id="path2991"
       inkscape:connector-curvature="0"
       sodipodi:nodetypes="ccsc" />
    <path
       style="fill:#678de5;fill-opacity:1;stroke:#678de5;stroke-width:5.06980801;stroke-linecap:butt;stroke-linejoin:round;stroke-miterlimit:4;stroke-opacity:1;stroke-dasharray:none"
       d="M 14.523612,851.86327 227.43407,829.03479 c 0,0 16.23893,0 20.29868,9.55611 4.05973,9.55611 -28.41814,82.2887 -28.41814,82.2887 0,0 4.05974,-43.53337 -6.31514,-51.49679 C 202.6246,861.41938 14.523612,851.86327 14.523612,851.86327 z"
       id="path2993"
       inkscape:connector-curvature="0" />
    <path
       style="fill:#178f1f;fill-opacity:1;stroke:#178f1f;stroke-width:5.82278919;stroke-linecap:butt;stroke-linejoin:round;stroke-miterlimit:4;stroke-opacity:1;stroke-dasharray:none"
       d="m 29.824108,890.76869 c 0,0 33.473449,-15.01835 79.419032,-20.60381 50.60746,-6.15222 75.07816,4.54454 84.24855,12.95097 10.86295,9.95799 17.26059,29.04402 10.19568,37.08687 -28.44058,32.37745 -57.75747,22.51827 -73.16166,24.14072 -31.97279,-7.18104 1.20659,-6.34555 16.40126,-14.90662 14.40452,-7.69102 19.86006,-18.19079 8.06444,-29.77506 -15.7291,-15.44725 -125.167302,-8.89307 -125.167302,-8.89307 z"
       id="path2997"
       inkscape:connector-curvature="0"
       sodipodi:nodetypes="csssccsc" />
    <path
       style="fill:#178f1f;fill-opacity:1;stroke:#178f1f;stroke-width:5.32336044;stroke-linecap:butt;stroke-linejoin:round;stroke-miterlimit:4;stroke-opacity:1;stroke-dasharray:none"
       d="m 131.1368,937.67636 c 0,0 25.95061,47.71711 7.67362,75.16364 -7.52405,13.3707 -12.03694,11.8115 -34.33764,3.7278 0,0 16.10329,18.912 30.83998,23.8416 7.93355,2.6539 11.24504,4.913 23.18043,2.6395 7.1269,-2.3878 7.89036,-1.1702 8.66524,-15.2826 0.64129,-11.6796 4.2378,-105.79027 4.2378,-105.79027 0,0 -25.42697,18.31705 -40.25943,15.70033 z"
       id="path2999"
       inkscape:connector-curvature="0"
       sodipodi:nodetypes="cccscscc" />
    <path
       style="fill:#178f1f;fill-opacity:1;stroke:#178f1f;stroke-width:7.36504745;stroke-linecap:butt;stroke-linejoin:round;stroke-miterlimit:4;stroke-opacity:1;stroke-dasharray:none"
       d="M 143.24778,975.01366 C 40.55025,981.89721 8.4319404,1008.1582 8.4319404,1008.1582 c 0,0 11.2343896,-13.72768 11.7754296,-30.65764 65.08142,-23.9275 96.36278,-16.90186 129.7448,-18.89391 31.64514,-4.39881 54.06896,-1.52428 99.39894,-26.11861 -30.93478,40.27061 -63.30704,38.85721 -106.10333,42.52562 z"
       id="path3001"
       inkscape:connector-curvature="0"
       sodipodi:nodetypes="cccccc" />
  </g>
</svg>
